<?xml version="1.0" encoding="UTF-8"?>
<svg width="500" height="500" version="1.1" viewBox="0 0 500.00001 500.00001" xmlns="http://www.w3.org/2000/svg">
 <g transform="matrix(7.0274 0 0 7.0274 74.315 -6969.7)">
  <circle cx="25" cy="1027.4" r="23.151" fill="none" stroke="#fff" stroke-width="2.0801"/>
  <path d="m11.096 1031.6a0.227 0.227 0 0 0 -0.20508 0.2265v5.959a0.227 0.227 0 0 0 0.22852 0.2285h4.2695a0.227 0.227 0 0 0 0.22656 -0.2285v-5.959a0.227 0.227 0 0 0 -0.22656 -0.2265h-4.2695a0.227 0.227 0 0 0 -0.02344 0zm0.25 0.4531h3.8164v5.5058h-3.8164v-5.5058z" color="#000000" color-rendering="auto" fill="#fff" image-rendering="auto" shape-rendering="auto" solid-color="#000000" style="block-progression:tb;isolation:auto;mix-blend-mode:normal;text-decoration-color:#000000;text-decoration-line:none;text-decoration-style:solid;text-indent:0;text-transform:none;white-space:normal"/>
  <path d="m15.365 1028.7c-0.11654 0.011-0.20537 0.1094-0.20508 0.2265v8.8633c2.2e-4 0.125 0.10152 0.2264 0.22656 0.2266h4.1367c0.12504-2e-4 0.22634-0.1016 0.22656-0.2266v-8.8633c-2.75e-4 -0.125-0.10156-0.2263-0.22656-0.2265h-4.1367c-0.0072-3e-4 -0.01433-3e-4 -0.02149 0zm0.25 0.4531h3.6816v8.4101h-3.6816z" color="#000000" color-rendering="auto" fill="#fff" image-rendering="auto" shape-rendering="auto" solid-color="#000000" style="block-progression:tb;isolation:auto;mix-blend-mode:normal;text-decoration-color:#000000;text-decoration-line:none;text-decoration-style:solid;text-indent:0;text-transform:none;white-space:normal"/>
  <path d="m19.523 1030.8c-0.12655-8e-4 -0.22936 0.102-0.22852 0.2285v6.7871c-8.39e-4 0.1265 0.10197 0.2293 0.22852 0.2285h4.1211c0.12579-2e-4 0.22739-0.1027 0.22656-0.2285v-6.7871c8.31e-4 -0.1258-0.10078-0.2283-0.22656-0.2285zm0.22656 0.455h3.666v6.334h-3.666z" color="#000000" color-rendering="auto" fill="#fff" image-rendering="auto" shape-rendering="auto" solid-color="#000000" style="block-progression:tb;isolation:auto;mix-blend-mode:normal;text-decoration-color:#000000;text-decoration-line:none;text-decoration-style:solid;text-indent:0;text-transform:none;white-space:normal"/>
  <path d="m23.643 1026.7a0.227 0.227 0 0 0 -0.22656 0.2285v10.838a0.227 0.227 0 0 0 0.22656 0.2265h4.1875a0.227 0.227 0 0 0 0.22656 -0.2265v-10.838a0.227 0.227 0 0 0 -0.22656 -0.2285h-4.1875zm0.22656 0.4551h3.7344v10.385h-3.7344v-10.385z" color="#000000" color-rendering="auto" fill="#fff" image-rendering="auto" shape-rendering="auto" solid-color="#000000" style="block-progression:tb;isolation:auto;mix-blend-mode:normal;text-decoration-color:#000000;text-decoration-line:none;text-decoration-style:solid;text-indent:0;text-transform:none;white-space:normal"/>
  <path d="m27.832 1028.2c-0.1258-8e-4 -0.2283 0.1008-0.22852 0.2266v9.332c2.19e-4 0.1258 0.10271 0.2274 0.22852 0.2266h4.166c0.12504-2e-4 0.22634-0.1016 0.22656-0.2266v-9.332c-2.2e-4 -0.125-0.10152-0.2264-0.22656-0.2266zm0.22656 0.4551h3.7129v8.8769h-3.7129z" color="#000000" color-rendering="auto" fill="#fff" image-rendering="auto" shape-rendering="auto" solid-color="#000000" style="block-progression:tb;isolation:auto;mix-blend-mode:normal;text-decoration-color:#000000;text-decoration-line:none;text-decoration-style:solid;text-indent:0;text-transform:none;white-space:normal"/>
  <path d="m31.975 1021.6a0.227 0.227 0 0 0 -0.20312 0.2265v15.84a0.227 0.227 0 0 0 0.22656 0.2285h4.1211a0.227 0.227 0 0 0 0.22656 -0.2285v-15.84a0.227 0.227 0 0 0 -0.22656 -0.2265h-4.1211a0.227 0.227 0 0 0 -0.02344 0zm0.25 0.4531h3.668v15.387h-3.668v-15.387z" color="#000000" color-rendering="auto" fill="#fff" image-rendering="auto" shape-rendering="auto" solid-color="#000000" style="block-progression:tb;isolation:auto;mix-blend-mode:normal;text-decoration-color:#000000;text-decoration-line:none;text-decoration-style:solid;text-indent:0;text-transform:none;white-space:normal"/>
  <path transform="translate(0 1002.4)" d="m10.709 13.41c-0.05375 0-0.10227 0.03308-0.12891 0.08008l-0.98437 1.7031c-0.060951 0.1056 0.014811 0.23758 0.13672 0.23828h0.50781v20.021a0.454 0.454 0 0 0 0.45312 0.45508h27.709v0.52344c-2.36e-4 0.1221 0.1303 0.19917 0.23633 0.13867l1.709-0.98633c0.0511-0.03 0.08131-0.08708 0.07813-0.14648-0.0025-0.053-0.03196-0.10171-0.07813-0.12891l-1.709-0.98633c-0.05302-0.0305-0.11203-0.02691-0.1582 0-0.04618 0.02691-0.07824 0.07752-0.07813 0.13867v0.53906h-27.256v-19.568h0.55664c0.12191-7e-4 0.19767-0.13268 0.13672-0.23828l-0.98438-1.7031c-0.02976-0.052-0.08645-0.08308-0.14648-0.08008z" color="#000000" color-rendering="auto" fill="#fff" fill-rule="evenodd" image-rendering="auto" shape-rendering="auto" solid-color="#000000" style="block-progression:tb;isolation:auto;mix-blend-mode:normal;text-decoration-color:#000000;text-decoration-line:none;text-decoration-style:solid;text-indent:0;text-transform:none;white-space:normal"/>
 </g>
</svg>
